PathFileType	4	(X/Y/Z)	markers.trc
DataRate	CameraRate	NumFrames	NumMarkers	Units	OrigDataRate	OrigDataStartFrame	OrigNumFrames
59.94	59.94	23	12	m	59.94	381	507
Frame#	Time	LEFT_SHOULDER			RIGHT_SHOULDER			LEFT_HIP			RIGHT_HIP			LEFT_KNEE			RIGHT_KNEE			LEFT_ANKLE			RIGHT_ANKLE			LEFT_HEEL			RIGHT_HEEL			LEFT_FOOT_INDEX			RIGHT_FOOT_INDEX		
		X1	Y1	Z1	X2	Y2	Z2	X3	Y3	Z3	X4	Y4	Z4	X5	Y5	Z5	X6	Y6	Z6	X7	Y7	Z7	X8	Y8	Z8	X9	Y9	Z9	X10	Y10	Z10	X11	Y11	Z11	X12	Y12	Z12

381	6.339667	3.022166	1.994587	0.000000	2.899466	1.977845	0.000000	2.983747	2.609773	0.000000	2.951152	2.606245	0.000000	2.826070	3.017066	0.000000	3.037815	3.059452	0.000000	2.675820	3.428726	0.000000	3.190154	3.537152	0.000000	2.689265	3.520702	0.000000	3.256867	3.617933	0.000000	2.476384	3.419373	0.000000	2.986136	3.630842	0.000000
382	6.356350	3.005610	1.997791	0.000000	2.882102	1.980619	0.000000	2.967248	2.611115	0.000000	2.932986	2.607898	0.000000	2.810864	3.021861	0.000000	3.025571	3.060583	0.000000	2.664202	3.428610	0.000000	3.188259	3.537197	0.000000	2.680157	3.519509	0.000000	3.256026	3.617384	0.000000	2.465730	3.419878	0.000000	2.984641	3.631457	0.000000
383	6.373033	2.988607	2.000721	0.000000	2.864563	1.983486	0.000000	2.949952	2.612630	0.000000	2.914245	2.609664	0.000000	2.795449	3.026060	0.000000	3.011857	3.061695	0.000000	2.654674	3.428835	0.000000	3.185987	3.536910	0.000000	2.674045	3.518530	0.000000	3.254913	3.616237	0.000000	2.457011	3.423643	0.000000	2.983346	3.631957	0.000000
384	6.389717	2.971299	2.003245	0.000000	2.847029	1.986321	0.000000	2.932245	2.614227	0.000000	2.895387	2.611456	0.000000	2.780554	3.029364	0.000000	2.996573	3.062681	0.000000	2.646990	3.429315	0.000000	3.183325	3.536036	0.000000	2.670287	3.517832	0.000000	3.253517	3.614192	0.000000	2.449940	3.430588	0.000000	2.982238	3.632307	0.000000
385	6.406400	2.953807	2.005220	0.000000	2.829673	1.988945	0.000000	2.914456	2.615808	0.000000	2.876911	2.613198	0.000000	2.766981	3.031597	0.000000	2.979841	3.063472	0.000000	2.641118	3.429940	0.000000	3.180178	3.534264	0.000000	2.668306	3.517435	0.000000	3.251744	3.610927	0.000000	2.444593	3.440297	0.000000	2.981271	3.632515	0.000000
386	6.423083	2.936261	2.006559	0.000000	2.812535	1.991161	0.000000	2.896834	2.617276	0.000000	2.859223	2.614812	0.000000	2.755355	3.032787	0.000000	2.961944	3.064037	0.000000	2.637023	3.430631	0.000000	3.176348	3.531282	0.000000	2.667531	3.517333	0.000000	3.249389	3.606145	0.000000	2.441149	3.451811	0.000000	2.980370	3.632611	0.000000
387	6.439767	2.918812	2.007239	0.000000	2.795534	1.992807	0.000000	2.879579	2.618543	0.000000	2.842530	2.616207	0.000000	2.745899	3.033122	0.000000	2.943230	3.064374	0.000000	2.634509	3.431361	0.000000	3.171589	3.526860	0.000000	2.667442	3.517499	0.000000	3.246182	3.599617	0.000000	2.439631	3.463742	0.000000	2.979473	3.632627	0.000000
388	6.456450	2.901628	2.007266	0.000000	2.778583	1.993798	0.000000	2.862917	2.619534	0.000000	2.826829	2.617295	0.000000	2.738388	3.032871	0.000000	2.923995	3.064480	0.000000	2.633208	3.432124	0.000000	3.165676	3.520913	0.000000	2.667630	3.517882	0.000000	3.241871	3.591196	0.000000	2.439810	3.474722	0.000000	2.978567	3.632590	0.000000
389	6.473133	2.884872	2.006630	0.000000	2.761686	1.994124	0.000000	2.847089	2.620188	0.000000	2.811971	2.618001	0.000000	2.732329	3.032307	0.000000	2.904409	3.064329	0.000000	2.632685	3.432905	0.000000	3.158456	3.513524	0.000000	2.667816	3.518401	0.000000	3.236319	3.580836	0.000000	2.441255	3.483797	0.000000	2.977691	3.632512	0.000000
390	6.489817	2.868654	2.005292	0.000000	2.744998	1.993822	0.000000	2.832236	2.620442	0.000000	2.797716	2.618264	0.000000	2.727240	3.031663	0.000000	2.884488	3.063856	0.000000	2.632557	3.433669	0.000000	3.149861	3.504917	0.000000	2.667855	3.518957	0.000000	3.229537	3.568594	0.000000	2.443411	3.490537	0.000000	2.976909	3.632394	0.000000
391	6.506500	2.853022	2.003219	0.000000	2.728743	1.992950	0.000000	2.818334	2.620214	0.000000	2.783749	2.618018	0.000000	2.722720	3.031095	0.000000	2.864194	3.062971	0.000000	2.632533	3.434370	0.000000	3.139946	3.495437	0.000000	2.667709	3.519464	0.000000	3.221691	3.554657	0.000000	2.445662	3.494981	0.000000	2.976284	3.632233	0.000000
392	6.523183	2.837982	2.000443	0.000000	2.713039	1.991598	0.000000	2.805253	2.619389	0.000000	2.769748	2.617186	0.000000	2.718353	3.030661	0.000000	2.843614	3.061579	0.000000	2.632419	3.434972	0.000000	3.128908	3.485512	0.000000	2.667417	3.519868	0.000000	3.213078	3.539368	0.000000	2.447448	3.497529	0.000000	2.975840	3.632026	0.000000
393	6.539867	2.823522	1.997114	0.000000	2.697793	1.989895	0.000000	2.792862	2.617838	0.000000	2.755502	2.615693	0.000000	2.713686	3.030331	0.000000	2.823001	3.059629	0.000000	2.632109	3.435456	0.000000	3.117054	3.475566	0.000000	2.667086	3.520146	0.000000	3.204043	3.523189	0.000000	2.448446	3.498773	0.000000	2.975558	3.631783	0.000000
394	6.556550	2.809615	1.993474	0.000000	2.682756	1.988003	0.000000	2.781083	2.615450	0.000000	2.740976	2.613500	0.000000	2.708362	3.030013	0.000000	2.802698	3.057153	0.000000	2.631573	3.435836	0.000000	3.104693	3.465939	0.000000	2.666857	3.520308	0.000000	3.194842	3.506645	0.000000	2.448631	3.499296	0.000000	2.975367	3.631525	0.000000
395	6.573233	2.796221	1.989790	0.000000	2.667631	1.986093	0.000000	2.769926	2.612181	0.000000	2.726251	2.610635	0.000000	2.702248	3.029591	0.000000	2.783095	3.054280	0.000000	2.630853	3.436153	0.000000	3.092073	3.456848	0.000000	2.666859	3.520390	0.000000	3.185557	3.490293	0.000000	2.448195	3.499549	0.000000	2.975164	3.631278	0.000000
396	6.589917	2.783327	1.986293	0.000000	2.652153	1.984309	0.000000	2.759526	2.608094	0.000000	2.711450	2.607214	0.000000	2.695457	3.028956	0.000000	2.764584	3.051205	0.000000	2.630056	3.436450	0.000000	3.079358	3.448407	0.000000	2.667158	3.520433	0.000000	3.176115	3.474664	0.000000	2.447420	3.499786	0.000000	2.974833	3.631063	0.000000
397	6.606600	2.770985	1.983164	0.000000	2.636228	1.982750	0.000000	2.750068	2.603393	0.000000	2.696709	2.603431	0.000000	2.688279	3.028039	0.000000	2.747444	3.048139	0.000000	2.629331	3.436756	0.000000	3.066649	3.440653	0.000000	2.667734	3.520462	0.000000	3.166365	3.460155	0.000000	2.446584	3.500061	0.000000	2.974266	3.630884	0.000000
398	6.623283	2.759304	1.980540	0.000000	2.620012	1.981459	0.000000	2.741614	2.598411	0.000000	2.682204	2.599529	0.000000	2.681016	3.026840	0.000000	2.731735	3.045304	0.000000	2.628817	3.437069	0.000000	3.054019	3.433565	0.000000	2.668503	3.520474	0.000000	3.156178	3.446942	0.000000	2.445909	3.500310	0.000000	2.973387	3.630725	0.000000
399	6.639967	2.748339	1.978503	0.000000	2.603883	1.980418	0.000000	2.733954	2.593503	0.000000	2.668177	2.595718	0.000000	2.673820	3.025421	0.000000	2.717292	3.042906	0.000000	2.628609	3.437371	0.000000	3.041537	3.427080	0.000000	2.669367	3.520447	0.000000	3.145507	3.434976	0.000000	2.445521	3.500452	0.000000	2.972160	3.630542	0.000000
400	6.656650	2.737949	1.977040	0.000000	2.588326	1.979567	0.000000	2.726656	2.588898	0.000000	2.654935	2.592097	0.000000	2.666650	3.023859	0.000000	2.703778	3.041084	0.000000	2.628750	3.437647	0.000000	3.029256	3.421103	0.000000	2.670248	3.520359	0.000000	3.134348	3.424070	0.000000	2.445455	3.500455	0.000000	2.970562	3.630260	0.000000
401	6.673333	2.727819	1.976034	0.000000	2.573707	1.978823	0.000000	2.719287	2.584641	0.000000	2.642733	2.588638	0.000000	2.659291	3.022176	0.000000	2.690795	3.039848	0.000000	2.629236	3.437902	0.000000	3.017173	3.415516	0.000000	2.671074	3.520200	0.000000	3.122636	3.414028	0.000000	2.445678	3.500326	0.000000	2.968496	3.629781	0.000000
402	6.690017	2.717578	1.975314	0.000000	2.560118	1.978114	0.000000	2.711552	2.580677	0.000000	2.631614	2.585261	0.000000	2.651420	3.020323	0.000000	2.678045	3.039080	0.000000	2.630024	3.438155	0.000000	3.005189	3.410222	0.000000	2.671753	3.519974	0.000000	3.110199	3.404740	0.000000	2.446115	3.500096	0.000000	2.965668	3.629001	0.000000
403	6.706700	2.706892	1.974704	0.000000	2.547473	1.977394	0.000000	2.703290	2.576955	0.000000	2.621327	2.581943	0.000000	2.642744	3.018197	0.000000	2.665369	3.038583	0.000000	2.631024	3.438424	0.000000	2.993103	3.405171	0.000000	2.672169	3.519686	0.000000	3.096812	3.396246	0.000000	2.446641	3.499788	0.000000	2.961463	3.627835	0.000000
